<?xml version="1.0" encoding="utf-8"?>
<!-- Generator: Adobe Illustrator 27.0.0, SVG Export Plug-In . SVG Version: 6.00 Build 0)  -->
<svg version="1.1" id="Layer_1" xmlns:serif="http://www.serif.com/"
	 xmlns="http://www.w3.org/2000/svg" xmlns:xlink="http://www.w3.org/1999/xlink" x="0px" y="0px" viewBox="0 0 64 64"
	 style="enable-background:new 0 0 64 64;" xml:space="preserve">
<path id="WhatsApp-Logo-Icon" d="M47.7,0c0.4,0,1.2,0,1.7,0.1c1.4,0,3.3,0.1,4.1,0.3C54.8,0.6,56.1,1,57,1.5
	c1.2,0.6,2.2,1.3,3.2,2.3c0.9,0.9,1.7,1.9,2.2,3.1c0.5,1,0.9,2.2,1.2,3.5c0.2,0.8,0.3,2.7,0.4,4.1v33.2c0,0.4,0,1.2-0.1,1.7
	c0,1.4-0.1,3.3-0.3,4.1c-0.3,1.3-0.6,2.5-1.2,3.5c-0.6,1.2-1.3,2.2-2.3,3.2c-0.9,0.9-1.9,1.7-3.1,2.2c-1,0.5-2.2,0.9-3.5,1.2
	c-0.8,0.2-2.7,0.3-4.1,0.4H16.3c-0.4,0-1.2,0-1.7-0.1c-1.4,0-3.3-0.1-4.1-0.3C9.2,63.4,7.9,63,7,62.5c-1.2-0.6-2.2-1.3-3.2-2.3
	c-0.9-0.9-1.7-1.9-2.2-3.1c-0.5-1-0.9-2.2-1.2-3.5c-0.2-0.8-0.3-2.7-0.4-4.1V16.3c0-0.4,0-1.2,0.1-1.7c0-1.4,0.1-3.3,0.3-4.1
	C0.6,9.2,1,7.9,1.5,7c0.6-1.2,1.3-2.2,2.3-3.2C4.7,2.9,5.8,2.1,7,1.5c1-0.5,2.2-0.9,3.5-1.2c0.8-0.2,2.7-0.3,4.1-0.4
	C14.5,0,47.7,0,47.7,0z M48.8,15.3c-4.3-4.3-10-6.7-16.1-6.7C20.1,8.6,9.9,18.9,9.9,31.4c0,4,1,7.9,3,11.4L9.7,54.7l12.1-3.2
	c3.3,1.8,7.1,2.8,10.9,2.8h0c12.6,0,22.8-10.2,22.8-22.8C55.5,25.4,53.1,19.6,48.8,15.3z M32.7,50.4L32.7,50.4
	c-3.4,0-6.7-0.9-9.7-2.6l-0.7-0.4l-7.2,1.9l1.9-7l-0.5-0.7c-1.9-3-2.9-6.5-2.9-10.1c0-10.5,8.5-19,19-19c5.1,0,9.8,2,13.4,5.6
	c3.6,3.6,5.6,8.3,5.5,13.4C51.7,41.9,43.1,50.4,32.7,50.4z M43.1,36.2c-0.6-0.3-3.4-1.7-3.9-1.9c-0.5-0.2-0.9-0.3-1.3,0.3
	c-0.4,0.6-1.5,1.9-1.8,2.2c-0.3,0.4-0.7,0.4-1.2,0.1c-0.6-0.3-2.4-0.9-4.6-2.8c-1.7-1.5-2.8-3.4-3.2-3.9s0-0.9,0.2-1.2
	c0.3-0.3,0.6-0.7,0.9-1c0.3-0.3,0.4-0.6,0.6-1c0.2-0.4,0.1-0.7,0-1c-0.1-0.3-1.3-3.1-1.8-4.2c-0.5-1.1-0.9-1-1.3-1
	c-0.3,0-0.7,0-1.1,0c-0.4,0-1,0.1-1.5,0.7c-0.5,0.6-2,1.9-2,4.8s2,5.5,2.3,5.9c0.3,0.4,4,6.1,9.7,8.6c1.4,0.6,2.4,0.9,3.2,1.2
	c1.4,0.4,2.6,0.4,3.6,0.2c1.1-0.2,3.4-1.4,3.8-2.7c0.5-1.3,0.5-2.5,0.3-2.7C44,36.6,43.7,36.5,43.1,36.2z"/>
</svg>
