<?xml version="1.0" encoding="utf-8"?>
<!-- Generator: Adobe Illustrator 27.0.0, SVG Export Plug-In . SVG Version: 6.00 Build 0)  -->
<svg version="1.1" id="Layer_1" xmlns="http://www.w3.org/2000/svg" xmlns:xlink="http://www.w3.org/1999/xlink" x="0px" y="0px"
	 viewBox="0 0 25 25" style="enable-background:new 0 0 25 25;" xml:space="preserve">
<style type="text/css">
	.st0{fill:#FFFFFF;}
</style>
<g>
	<path d="M12.5,0L12.5,0C19.4,0,25,5.6,25,12.5l0,0C25,19.4,19.4,25,12.5,25l0,0C5.6,25,0,19.4,0,12.5l0,0C0,5.6,5.6,0,12.5,0z"/>
	<path class="st0" d="M17.7,8.9c-0.6,0-1.2-0.3-1.7-0.7c-0.4-0.4-0.7-1.1-0.7-1.7c0,0,0-0.1,0-0.2c0,0,0,0,0,0c0-0.1,0-0.1,0-0.2
		c0-0.1,0-0.3-0.2-0.5c-0.1-0.1-0.3-0.2-0.5-0.2c-0.1,0-0.2,0-0.3,0c0,0-0.1,0-0.1,0c0,0,0,0-0.1,0c-0.1,0-0.2,0-0.3,0
		c-0.1,0-0.3,0-0.4,0.2c-0.1,0.1-0.2,0.3-0.2,0.5c0,0.1,0,0.2,0,0.2c0,0,0,0,0,0c0,0.1,0,0.1,0,0.2v8.5c0,0.5-0.1,0.9-0.4,1.3
		c-0.3,0.4-0.6,0.7-1.1,0.9s-0.9,0.2-1.4,0.1c-0.5-0.1-0.9-0.3-1.2-0.7c-0.3-0.3-0.6-0.8-0.7-1.2c-0.1-0.5,0-0.9,0.1-1.4
		c0.2-0.4,0.5-0.8,0.9-1.1c0.4-0.3,0.9-0.4,1.3-0.4c0,0,0.1,0,0.1,0c0,0,0,0,0.1,0c0.1,0,0.1,0,0.2,0c0.1,0,0.3,0,0.5-0.2
		c0.1-0.1,0.2-0.3,0.2-0.5c0-0.1,0-0.2,0-0.2c0,0,0,0,0,0c0-0.1,0-0.1,0-0.1c0,0,0,0,0,0c0-0.1,0-0.2,0-0.4c0-0.1-0.1-0.3-0.2-0.4
		c-0.1-0.1-0.3-0.2-0.4-0.2c-0.1,0-0.2,0-0.3,0c0,0-0.1,0-0.1,0c-0.9,0-1.7,0.3-2.5,0.7c-0.7,0.5-1.3,1.2-1.6,2
		c-0.3,0.8-0.4,1.7-0.2,2.6c0.2,0.9,0.6,1.6,1.2,2.3s1.4,1,2.3,1.2s1.7,0.1,2.6-0.3c0.8-0.3,1.5-0.9,2-1.6c0.5-0.7,0.7-1.6,0.7-2.5
		v-4.8c0.7,0.5,1.5,0.7,2.4,0.7c0,0,0.1,0,0.2,0c0,0,0,0,0,0c0.1,0,0.1,0,0.2,0c0.1,0,0.3,0,0.5-0.2c0.1-0.1,0.2-0.3,0.2-0.5
		c0-0.1,0-0.3,0-0.4c0,0,0,0,0,0c0,0,0,0,0,0c0-0.1,0-0.2,0-0.4c0-0.1-0.1-0.3-0.2-0.4l-0.1,0.1l0.1-0.1C18.4,9,18.2,9,18.1,8.9
		C17.9,8.9,17.8,8.9,17.7,8.9C17.7,8.9,17.7,8.9,17.7,8.9z"/>
</g>
</svg>
